<?xml version="1.0" encoding="utf-8"?>
<!-- Generator: Adobe Illustrator 27.0.0, SVG Export Plug-In . SVG Version: 6.00 Build 0)  -->
<svg version="1.1" id="Layer_1" xmlns="http://www.w3.org/2000/svg" xmlns:xlink="http://www.w3.org/1999/xlink" x="0px" y="0px"
	 viewBox="0 0 357.5 325" style="enable-background:new 0 0 357.5 325;" xml:space="preserve">
<style type="text/css">
	.st0{fill-rule:evenodd;clip-rule:evenodd;fill:#F8E5D6;}
	.st1{fill-rule:evenodd;clip-rule:evenodd;fill:#E4985D;}
	.st2{fill-rule:evenodd;clip-rule:evenodd;fill:#F1CBAE;}
	.st3{fill:#F1CBAE;}
	.st4{fill-rule:evenodd;clip-rule:evenodd;fill:#EBB285;}
	.st5{fill:#EBB285;}
</style>
<path class="st0" d="M130.1,260c-0.1,17.9-14.6,32.4-32.6,32.4C97.5,274.5,112.1,260,130.1,260z M97.5,292.6
	c17.9,0,32.4,14.5,32.4,32.4c0.1-17.9,14.6-32.4,32.6-32.4c0,18-14.6,32.4-32.6,32.4C112.1,325,97.6,310.5,97.5,292.6z M162.5,292.4
	c0-17.9-14.6-32.4-32.4-32.4C130.1,277.9,144.6,292.4,162.5,292.4z"/>
<circle class="st1" cx="65" cy="227.5" r="32.5"/>
<path class="st2" d="M32.6,162.5c-0.1,17.9-14.6,32.4-32.6,32.4C0,177.1,14.6,162.5,32.6,162.5z M0,195.1
	c17.9,0,32.4,14.5,32.4,32.4c0.1-17.9,14.6-32.4,32.6-32.4c0,18-14.6,32.4-32.6,32.4C14.6,227.5,0,213,0,195.1z M65,194.9
	c0-17.9-14.6-32.4-32.4-32.4C32.6,180.4,47.1,194.9,65,194.9z"/>
<circle class="st1" cx="32.5" cy="32.5" r="32.5"/>
<g>
	<path class="st3" d="M325,195c-17.9,0-32.5,14.6-32.5,32.5S277.9,260,260,260s-32.5-14.6-32.5-32.5S242.1,195,260,195
		c-17.9,0-32.5-14.6-32.5-32.5S242.1,130,260,130s32.5,14.6,32.5,32.5S307.1,195,325,195"/>
	<circle class="st4" cx="325" cy="227.5" r="32.5"/>
</g>
<g>
	<path class="st5" d="M195,130c-17.9,0-32.5,14.6-32.5,32.5S147.9,195,130,195s-32.5-14.6-32.5-32.5S112.1,130,130,130
		c-17.9,0-32.5-14.6-32.5-32.5S112.1,65,130,65s32.5,14.6,32.5,32.5S177.1,130,195,130"/>
	<path class="st1" d="M227.6,97.5c-0.1,17.9-14.6,32.4-32.6,32.4C195,112.1,209.6,97.5,227.6,97.5z M195,130.1
		c17.9,0,32.4,14.5,32.4,32.4c0.1-17.9,14.6-32.4,32.6-32.4c0,18-14.6,32.4-32.6,32.4C209.6,162.5,195,148.1,195,130.1z M260,129.9
		c0-17.9-14.6-32.4-32.4-32.4C227.6,115.4,242.1,129.9,260,129.9z"/>
</g>
</svg>
